<svg xmlns="http://www.w3.org/2000/svg" width="28" height="28" viewBox="0 0 28 28">
    <g>
        <g fill="#e8fff4" stroke="#b6efd2" stroke-width="0.2px" transform="translate(-20 -600) translate(20 600)">
            <circle cx="14" cy="14" r="14" stroke="none"/>
            <circle cx="14" cy="14" r="13.9" fill="none"/>
        </g>
        <path fill="#27a163" d="M19.234 21.783a.578.578 0 0 0-.5-.2l-3.362.3a.559.559 0 0 0-.5.374.582.582 0 0 0 .125.623l.694.765-4.055 3.717-2.06-2.235a.93.93 0 0 0-.64-.32 1.022 1.022 0 0 0-.818.267l-5.3 4.856a1.031 1.031 0 0 0-.053 1.441 1.175 1.175 0 0 0 .356.249c.053.018.125.036.2.053a.492.492 0 0 0 .16.018 1 1 0 0 0 .729-.267l4.553-4.18 2.058 2.256a1.015 1.015 0 0 0 1.441.053l4.8-4.411.694.765a.644.644 0 0 0 .6.178.6.6 0 0 0 .409-.462l.587-3.326a.53.53 0 0 0-.118-.514z" transform="translate(-20 -600) translate(23.337 587.748)"/>
    </g>
</svg>
